# xmcd
#
# Track frame offsets:
#	183
#	12758
#	27033
#	38470
#	53138
#	68098
#	79055
#	91883
#	102723
#	114475
#	128913
#	143315
#	154608
#	167018
#	180008
#	193178
#	206093
#	218685
#	231733
#	247545
#	259243
#	273425
#	285530
#	300585
#	314593
#
# Disc length: 4352 seconds
#
# Revision: 0
# Processed by: cddbd v1.5.2PL0 Copyright (c) Steve Scherf et al.
# Submitted via: audiograbber 1.83.01
#
DISCID=4c10fe19
DTITLE=Caterina Valente  and Margot Eskens - beliebte Schlagerstars und ihre größ
DTITLE=ten Hits 2
DYEAR=1900
DGENRE=Schlager
TTITLE0=Caterina Valente - Bonjour, Kathrin
TTITLE1=Caterina Valente - Spiel Noch Einmal Für Mich, Habanero
TTITLE2=Caterina Valente - Eventuell, Eventuell
TTITLE3=Caterina Valente - Musik Liegt In Der Luft
TTITLE4=Caterina Valente - Steig In Das Traumboot Der Liebe
TTITLE5=Caterina Valente - Casanova
TTITLE6=Caterina Valente - Chanson D'amour
TTITLE7=Caterina Valente - Fiesta Cubana
TTITLE8=Caterina Valente - Tipitipitipso 
TTITLE9=Caterina Valente - Wo Meine Sonne Scheint
TTITLE10=Caterina Valente - Ich Wär So Gerne Bei Dir
TTITLE11=Caterina Valente - Es Geht Besser, Besser, Besser
TTITLE12=Caterina Valente - Das Ist Die Hafenmelodie
TTITLE13=Caterina Valente - Ganz Paris Träumt Von Der Liebe 
TTITLE14=Caterina Valente - Das Habe Ich Gleich Gewußt
TTITLE15=Caterina Valente - Tschau, Tschau, Bambina 
TTITLE16=Margot Eskens - Cindy, Oh Cindy
TTITLE17=Margot Eskens - Tiritomba 
TTITLE18=Margot Eskens - Ein Herz, Das Kann Man Nicht Kaufen
TTITLE19=Margot Eskens - Calypso Italiano
TTITLE20=Margot Eskens - Ob In Bombay, Ob In Rio 
TTITLE21=Margot Eskens - Ich Möcht Heut Ausgehen
TTITLE22=Margot Eskens - Mamatschi, Kauf Mir Ein Pferdchen
TTITLE23=Margot Eskens - Himmelblaue Serenade
TTITLE24=Margot Eskens - Mondschein-Partie
EXTD=
EXTT0=
EXTT1=
EXTT2=
EXTT3=
EXTT4=
EXTT5=
EXTT6=
EXTT7=
EXTT8=
EXTT9=
EXTT10=
EXTT11=
EXTT12=
EXTT13=
EXTT14=
EXTT15=
EXTT16=
EXTT17=
EXTT18=
EXTT19=
EXTT20=
EXTT21=
EXTT22=
EXTT23=
EXTT24=
PLAYORDER=
